<?xml version="1.0" encoding="UTF-8"?>
<svg width="512" height="512" viewBox="0 0 512 512" xmlns="http://www.w3.org/2000/svg">
  <defs>
    <linearGradient id="lotus-gradient" x1="0%" y1="0%" x2="100%" y2="100%">
      <stop offset="0%" style="stop-color:#0066cc;stop-opacity:1" />
      <stop offset="100%" style="stop-color:#0099ff;stop-opacity:1" />
    </linearGradient>
  </defs>
  <g transform="translate(256,256)">
    <path d="M0,-200 C100,-150 200,-150 200,0 C200,150 100,200 0,200 C-100,200 -200,150 -200,0 C-200,-150 -100,-150 0,-200 Z" 
          fill="url(#lotus-gradient)" 
          transform="rotate(0)"/>
    <path d="M0,-200 C100,-150 200,-150 200,0 C200,150 100,200 0,200 C-100,200 -200,150 -200,0 C-200,-150 -100,-150 0,-200 Z" 
          fill="url(#lotus-gradient)" 
          transform="rotate(72)"/>
    <path d="M0,-200 C100,-150 200,-150 200,0 C200,150 100,200 0,200 C-100,200 -200,150 -200,0 C-200,-150 -100,-150 0,-200 Z" 
          fill="url(#lotus-gradient)" 
          transform="rotate(144)"/>
    <path d="M0,-200 C100,-150 200,-150 200,0 C200,150 100,200 0,200 C-100,200 -200,150 -200,0 C-200,-150 -100,-150 0,-200 Z" 
          fill="url(#lotus-gradient)" 
          transform="rotate(216)"/>
    <path d="M0,-200 C100,-150 200,-150 200,0 C200,150 100,200 0,200 C-100,200 -200,150 -200,0 C-200,-150 -100,-150 0,-200 Z" 
          fill="url(#lotus-gradient)" 
          transform="rotate(288)"/>
    <circle r="50" fill="#ffcc00"/>
  </g>
</svg> 